<?xml version="1.0" encoding="UTF-8" standalone="no"?>
<!DOCTYPE svg PUBLIC "-//W3C//DTD SVG 1.1//EN" "http://www.w3.org/Graphics/SVG/1.1/DTD/svg11.dtd">
<svg width="100%" height="100%" viewBox="0 0 1124 418" version="1.1" xmlns="http://www.w3.org/2000/svg" xmlns:xlink="http://www.w3.org/1999/xlink" xml:space="preserve" xmlns:serif="http://www.serif.com/" style="fill-rule:evenodd;clip-rule:evenodd;stroke-linecap:round;stroke-linejoin:round;stroke-miterlimit:1.5;">
    <g transform="matrix(-0.320061,0,0,0.320061,1244.92,-479.757)">
        <path d="M383.825,2386.65C383.785,2365.28 453.532,2366.48 486.397,2329.55C498.05,2314.04 504.951,2296.46 507.475,2276.96C569.268,2172.78 629.697,2090.94 696.142,1996.06C725.105,1934.97 741.36,1881.62 738.281,1840.04C728.854,1828.56 800.059,1576.98 800.059,1576.98C812.068,1554.77 832.522,1543.36 860.366,1541.4C887.732,1546.64 902.817,1567.47 902.931,1607.32C902.931,1607.32 879.595,1712.02 875.786,1774.27C861.533,1853.83 879.72,1977.75 879.72,1977.75C879.72,1977.75 1111.64,1677.15 1192.57,1545.99C1213.05,1512.78 1243.35,1505.82 1243.35,1505.82C1243.35,1505.82 1273.05,1499.18 1287.75,1506.75C1300.92,1514.7 1310.22,1524.9 1310.22,1545.1C1310.22,1560.42 1304.42,1587.79 1282.78,1637.05C1257.31,1695.03 1210.83,1764 1175.26,1823.87C1137.29,1887.78 1065.75,2013.41 1065.75,2013.41C1074.46,2022.13 1148.58,1999.19 1205.11,1916.84C1240.96,1864.6 1296.24,1814.98 1342.34,1764.81C1430.42,1668.97 1506.37,1595.66 1510.92,1591.12C1539.85,1571.74 1567.34,1569.4 1593.05,1588.22C1616.38,1611.71 1613.76,1639.85 1601.17,1669.78C1601.17,1669.78 1497.91,1792.1 1450.71,1861.65C1328.49,2000.36 1224.56,2131.06 1240.16,2149.74C1254.94,2167.44 1397.28,2074.98 1519.57,2001.6C1602.65,1951.76 1680.51,1917.11 1680.51,1917.11C1711.51,1902.72 1734.61,1925.42 1742.67,1945.82C1751.62,1968.45 1743.73,1997.7 1743.73,1997.7C1688.28,2083.39 1392.15,2223.93 1205.47,2431.83C1133.19,2599.91 1296.36,2578.73 1316.55,2576.43C1364.57,2564.12 1345.67,2555.66 1392.77,2550.02C1493.77,2563.95 1547.7,2615.85 1569.58,2683.99C1568.32,2702.75 1561.63,2712.58 1543.98,2721.86C1495.93,2715.49 1444.52,2711.63 1385.76,2713.28L1348.09,2721.86C1321.91,2728.14 1295.1,2730.63 1268.03,2731.56C1183.34,2746.08 1184,2770.15 1113.47,2786.9C1015.92,2781.38 914.736,2781.92 810.501,2787.55C759.033,2790.32 766.42,2769.88 718.3,2771.09C685.207,2778.88 646.168,2788.35 615.75,2800.61C511.745,2656.31 418.972,2531.5 383.825,2386.65Z" style="fill:none;stroke:black;stroke-width:8.33px;"/>
    </g>
    <g transform="matrix(0.320061,0,0,0.320061,-121.514,-479.757)">
        <path d="M383.825,2386.65C383.785,2365.28 453.532,2366.48 486.397,2329.55C498.05,2314.04 504.951,2296.46 507.475,2276.96C569.268,2172.78 629.697,2090.94 696.142,1996.06C725.105,1934.97 741.36,1881.62 738.281,1840.04C728.854,1828.56 800.059,1576.98 800.059,1576.98C812.068,1554.77 832.522,1543.36 860.366,1541.4C887.732,1546.64 902.817,1567.47 902.931,1607.32C902.931,1607.32 879.595,1712.02 875.786,1774.27C861.533,1853.83 879.72,1977.75 879.72,1977.75C879.72,1977.75 1111.64,1677.15 1192.57,1545.99C1213.05,1512.78 1243.35,1505.82 1243.35,1505.82C1243.35,1505.82 1273.05,1499.18 1287.75,1506.75C1300.92,1514.7 1310.22,1524.9 1310.22,1545.1C1310.22,1560.42 1304.42,1587.79 1282.78,1637.05C1257.31,1695.03 1210.83,1764 1175.26,1823.87C1137.29,1887.78 1065.75,2013.41 1065.75,2013.41C1074.46,2022.13 1148.58,1999.19 1205.11,1916.84C1240.96,1864.6 1296.24,1814.98 1342.34,1764.81C1430.42,1668.97 1506.37,1595.66 1510.92,1591.12C1539.85,1571.74 1567.34,1569.4 1593.05,1588.22C1616.38,1611.71 1613.76,1639.85 1601.17,1669.78C1601.17,1669.78 1497.91,1792.1 1450.71,1861.65C1328.49,2000.36 1224.56,2131.06 1240.16,2149.74C1254.94,2167.44 1397.28,2074.98 1519.57,2001.6C1602.65,1951.76 1680.51,1917.11 1680.51,1917.11C1711.51,1902.72 1734.61,1925.42 1742.67,1945.82C1751.62,1968.45 1743.73,1997.7 1743.73,1997.7C1688.28,2083.39 1392.15,2223.93 1205.47,2431.83C1133.19,2599.91 1296.36,2578.73 1316.55,2576.43C1364.57,2564.12 1345.67,2555.66 1392.77,2550.02C1493.77,2563.95 1547.7,2615.85 1569.58,2683.99C1568.32,2702.75 1561.63,2712.58 1543.98,2721.86C1495.93,2715.49 1444.52,2711.63 1385.76,2713.28L1348.09,2721.86C1321.91,2728.14 1295.1,2730.63 1268.03,2731.56C1183.34,2746.08 1184,2770.15 1113.47,2786.9C1015.92,2781.38 914.736,2781.92 810.501,2787.55C759.033,2790.32 766.42,2769.88 718.3,2771.09C685.207,2778.88 646.168,2788.35 615.75,2800.61C511.745,2656.31 418.972,2531.5 383.825,2386.65Z" style="fill:none;stroke:black;stroke-width:8.33px;"/>
    </g>
</svg>
