<?xml version="1.0" encoding="UTF-8" standalone="no"?><!DOCTYPE svg PUBLIC "-//W3C//DTD SVG 1.1//EN" "http://www.w3.org/Graphics/SVG/1.1/DTD/svg11.dtd"><svg width="100%" height="100%" viewBox="0 0 266 266" version="1.1" xmlns="http://www.w3.org/2000/svg" xmlns:xlink="http://www.w3.org/1999/xlink" xml:space="preserve" xmlns:serif="http://www.serif.com/" style="fill-rule:evenodd;clip-rule:evenodd;stroke-linejoin:round;stroke-miterlimit:2;"><g><g><g><path d="M220.84,11.043c0,-4.019 -2.175,-7.707 -5.698,-9.65c-3.489,-1.965 -7.795,-1.833 -11.196,0.287l-85.653,53.531l-63.082,0c-6.107,0 -11.042,4.947 -11.042,11.042l-0,132.503c-0,1.866 0.574,3.534 1.391,5.08c2.332,4.409 8.123,5.96 8.123,5.96c84.513,-43.905 122.669,-114.388 167.157,-181.24l0,-17.513Z" style="fill-rule:nonzero;"/><path d="M53.683,209.796l64.611,0.004l85.653,53.531c1.789,1.116 3.809,1.679 5.852,1.679c1.844,-0 3.688,-0.464 5.344,-1.381c3.523,-1.954 5.698,-5.642 5.698,-9.662l-0.001,-238.199l-167.157,194.028Z" style="fill-rule:nonzero;"/></g></g></g></svg>