<?xml version="1.0" encoding="iso-8859-1"?>
<!-- Uploaded to: SVG Repo, www.svgrepo.com, Generator: SVG Repo Mixer Tools -->
<svg fill="#000000" height="800px" width="800px" version="1.1" id="Layer_1" xmlns="http://www.w3.org/2000/svg" xmlns:xlink="http://www.w3.org/1999/xlink" 
	 viewBox="0 0 512.005 512.005" xml:space="preserve">
<g>
	<g>
		<g>
			<path d="M426.668,21.336c0-7.765-4.203-14.891-11.008-18.645c-6.741-3.797-15.061-3.541-21.632,0.555L228.545,106.669H106.668
				c-11.797,0-21.333,9.557-21.333,21.333v256c0,3.605,1.109,6.827,2.688,9.813L426.668,55.17V21.336z"/>
			<path d="M136.835,405.338h91.712L394.03,508.762c3.456,2.155,7.36,3.243,11.307,3.243c3.563,0,7.125-0.896,10.325-2.667
				c6.805-3.776,11.008-10.901,11.008-18.667V115.503L136.835,405.338z"/>
		</g>
	</g>
</g>
</svg>